# xmcd CD database file
# Copyright (C) 1995-1998 Ti Kan
#
# Track frame offsets:
#	150
#	15273
#	41569
#	56431
#	71811
#	79889
#	89292
#	104251
#	117668
#	132393
#	149478
#	162055
#	178810
#	186284
#	195868
#	211875
#	225547
#
# Disc length: 3154 seconds
#
# Revision: 1
# Processed by: cddbd v1.4b41PL1 Copyright (c) Steve Scherf et al.
# Submitted via: CDex 1.30
#
DISCID=e90c5011
DTITLE=Art Morrison - Mighty Oak
DYEAR=2000
DGENRE=Country
TTITLE0=Devil in Disguise
TTITLE1=Family Tradition
TTITLE2=Put Another Log on the Fire
TTITLE3=Help Me Make it Through the Night
TTITLE4=No Reason to Quit
TTITLE5=Riding My Thumb to Mexico
TTITLE6=Holding Things Together
TTITLE7=Arizona
TTITLE8=I Don't Give a Damn
TTITLE9=When Daddy Comes Home from Tennessee
TTITLE10=Rainbow Stew
TTITLE11=Take this Job and Shove it
TTITLE12=Maybe Baby
TTITLE13=#43
TTITLE14=One in a Million
TTITLE15=Silver Wings
TTITLE16=This Crazy Heart of Mine
EXTD=YEAR: 2000  ID3G:   2
EXTT0=
EXTT1=
EXTT2=
EXTT3=
EXTT4=
EXTT5=
EXTT6=
EXTT7=
EXTT8=
EXTT9=
EXTT10=
EXTT11=
EXTT12=
EXTT13=
EXTT14=
EXTT15=
EXTT16=
PLAYORDER=
